<?xml version="1.0" encoding="UTF-8" standalone="no" ?>
<COLLADA xmlns="http://www.collada.org/2005/11/COLLADASchema" version="1.4.1">
  <asset>
    <contributor>
      <author>Assimp</author>
      <authoring_tool>THREE.GLTFExporter r184</authoring_tool>
    </contributor>
    <created>2026-08-30T20:11:08</created>
    <modified>2026-08-30T20:11:08</modified>
    <unit name="meter" meter="1" />
    <up_axis>Y_UP</up_axis>
  </asset>
  <library_images>
  </library_images>
  <library_effects>
    <effect id="_0i0i0-fx" name="0,0,0">
      <profile_COMMON>
        <technique sid="standard">
          <phong>
            <emission>
              <color sid="emission">0   0   0   1</color>
            </emission>
            <diffuse>
              <color sid="diffuse">0   0   0   1</color>
            </diffuse>
            <shininess>
              <float sid="shininess">0</float>
            </shininess>
            <transparency>
              <float sid="transparency">1</float>
            </transparency>
          </phong>
        </technique>
      </profile_COMMON>
    </effect>
    <effect id="material_1-fx" name="">
      <profile_COMMON>
        <technique sid="standard">
          <phong>
            <emission>
              <color sid="emission">0   0   0   1</color>
            </emission>
            <diffuse>
              <color sid="diffuse">1   1   1   1</color>
            </diffuse>
            <shininess>
              <float sid="shininess">0</float>
            </shininess>
            <transparency>
              <float sid="transparency">1</float>
            </transparency>
          </phong>
        </technique>
      </profile_COMMON>
    </effect>
  </library_effects>
  <library_materials>
    <material id="_0i0i0" name="0,0,0">
      <instance_effect url="#_0i0i0-fx"/>
    </material>
    <material id="material_1" name="">
      <instance_effect url="#material_1-fx"/>
    </material>
  </library_materials>
  <library_geometries>
    <geometry id="meshesQ0S" name="meshes[0]" >
      <mesh>
        <source id="meshesQ0S-positions" name="meshesQ0S-positions">
          <float_array id="meshesQ0S-positions-array" count="2736"> 86.1343155 -6 -178.512039 86.5684433 0 -179.263977 86.7192078 -6 -180.119019 86.7192078 -6 -180.119019 86.5684433 0 -179.263977 86.5684433 0 -180.97406 86.1343155 -6 -181.725983 85.4692078 0 -182.284088 84.6533279 -6 -182.581039 83.7850876 0 -182.581039 82.9692078 -6 -182.284088 82.3040924 0 -181.725983 81.8699722 -6 -180.97406 81.7192078 0 -180.119019 81.8699722 -6 -179.263977 82.3040924 0 -178.512039 82.9692078 -6 -177.953949 83.7850876 0 -177.656998 84.6533279 -6 -177.656998 85.4692078 0 -177.953949 -219.701004 -6 22.0358658 -219.266891 0 21.2839451 -219.116119 -6 20.428896 -219.116119 -6 20.428896 -219.266891 0 21.2839451 -219.266891 0 19.5738468 -219.701004 -6 18.8219261 -220.366119 0 18.2638321 -221.182007 -6 17.9668751 -222.050232 0 17.9668751 -222.866119 -6 18.2638321 -223.531219 0 18.8219261 -223.965347 -6 19.5738468 -224.116119 0 20.428896 -223.965347 -6 21.2839451 -223.531219 0 22.0358658 -222.866119 -6 22.5939579 -222.050232 0 22.8909168 -221.182007 -6 22.8909168 -220.366119 0 22.5939579 95.0312195 -6 -200.532669 95.4653473 0 -201.284576 95.6161118 -6 -202.139633 95.6161118 -6 -202.139633 95.4653473 0 -201.284576 95.4653473 0 -202.99469 95.0312195 -6 -203.746613 94.3661118 0 -204.304688 93.5502319 -6 -204.601654 92.6819916 0 -204.601654 91.8661118 -6 -204.304688 91.2009964 0 -203.746613 90.7668915 -6 -202.99469 90.6161118 0 -202.139633 90.7668915 -6 -201.284576 91.2009964 0 -200.532669 91.8661118 -6 -199.974579 92.6819916 0 -199.677628 93.5502319 -6 -199.677628 94.3661118 0 -199.974579 223.531219 -6 22.0358658 223.965347 0 21.2839451 224.116119 -6 20.428896 224.116119 -6 20.428896 223.965347 0 21.2839451 223.965347 0 19.5738468 223.531219 -6 18.8219261 222.866119 0 18.2638321 222.050232 -6 17.9668751 221.182007 0 17.9668751 220.366119 -6 18.2638321 219.701004 0 18.8219261 219.266891 -6 19.5738468 219.116119 0 20.428896 219.266891 -6 21.2839451 219.701004 0 22.0358658 220.366119 -6 22.5939579 221.182007 0 22.8909168 222.050232 -6 22.8909168 222.866119 0 22.5939579 -111.962929 -6 164.602448 -111.528809 0 163.85054 -111.378036 -6 162.995483 -111.378036 -6 162.995483 -111.528809 0 163.85054 -111.528809 0 162.140427 -111.962929 -6 161.388519 -112.628036 0 160.830414 -113.443916 -6 160.533463 -114.312164 0 160.533463 -115.128036 -6 160.830414 -115.793152 0 161.388519 -116.227272 -6 162.140427 -116.378036 0 162.995483 -116.227272 -6 163.85054 -115.793152 0 164.602448 -115.128036 -6 165.160538 -114.312164 0 165.457504 -113.443916 -6 165.457504 -112.628036 0 165.160538 199.799545 -6 20.9997177 200.233643 0 20.2477989 200.38443 -6 19.3927479 200.38443 -6 19.3927479 200.233643 0 20.2477989 200.233643 0 18.5376987 199.799545 -6 17.78578 199.13443 0 17.227684 198.318542 -6 16.9307289 197.450287 0 16.9307289 196.63443 -6 17.227684 195.969315 0 17.78578 195.535187 -6 18.5376987 195.38443 0 19.3927479 195.535187 -6 20.2477989 195.969315 0 20.9997177 196.63443 -6 21.5578098 197.450287 0 21.8547688 198.318542 -6 21.8547688 199.13443 0 21.5578098 -80.3264999 -6 -179.418503 -79.8923798 0 -180.170425 -79.7416077 -6 -181.025467 -79.7416077 -6 -181.025467 -79.8923798 0 -180.170425 -79.8923798 0 -181.880524 -80.3264999 -6 -182.632446 -80.9916077 0 -183.190536 -81.8074875 -6 -183.487488 -82.6757355 0 -183.487488 -83.4916077 -6 -183.190536 -84.156723 0 -182.632446 -84.5908432 -6 -181.880524 -84.7416077 0 -181.025467 -84.5908432 -6 -180.170425 -84.156723 0 -179.418503 -83.4916077 -6 -178.860413 -82.6757355 0 -178.563461 -81.8074875 -6 -178.563461 -80.9916077 0 -178.860413 -126.584892 -6 183.317703 -126.150772 0 182.565781 -126.000008 -6 181.710739 -126.000008 -6 181.710739 -126.150772 0 182.565781 -126.150772 0 180.855698 -126.584892 -6 180.10376 -127.250008 0 179.54567 -128.065887 -6 179.248718 -128.934113 0 179.248718 -129.75 -6 179.54567 -130.415115 0 180.10376 -130.849228 -6 180.855698 -131 0 181.710739 -130.849228 -6 182.565781 -130.415115 0 183.317703 -129.75 -6 183.875809 -128.934113 0 184.17276 -128.065887 -6 184.17276 -127.250008 0 183.875809 -91.2009964 -6 -200.532669 -90.7668915 0 -201.284576 -90.6161118 -6 -202.139633 -90.6161118 -6 -202.139633 -90.7668915 0 -201.284576 -90.7668915 0 -202.99469 -91.2009964 -6 -203.746613 -91.8661118 0 -204.304688 -92.6819916 -6 -204.601654 -93.5502319 0 -204.601654 -94.3661118 -6 -204.304688 -95.0312195 0 -203.746613 -95.4653473 -6 -202.99469 -95.6161118 0 -202.139633 -95.4653473 -6 -201.284576 -95.0312195 0 -200.532669 -94.3661118 -6 -199.974579 -93.5502319 0 -199.677628 -92.6819916 -6 -199.677628 -91.8661118 0 -199.974579 130.415115 -6 183.317703 130.849228 0 182.565781 131 -6 181.710739 131 -6 181.710739 130.849228 0 182.565781 130.849228 0 180.855698 130.415115 -6 180.10376 129.75 0 179.54567 128.934113 -6 179.248718 128.065887 0 179.248718 127.250008 -6 179.54567 126.584892 0 180.10376 126.150772 -6 180.855698 126.000008 0 181.710739 126.150772 -6 182.565781 126.584892 0 183.317703 127.250008 -6 183.875809 128.065887 0 184.17276 128.934113 -6 184.17276 129.75 0 183.875809 -196.182144 -6 18.7305031 -195.748032 0 17.9785843 -195.597244 -6 17.1235352 -195.597244 -6 17.1235352 -195.748032 0 17.9785843 -195.748032 0 16.2684841 -196.182144 -6 15.5165663 -196.847244 0 14.9584713 -197.663132 -6 14.6615152 -198.531357 0 14.6615152 -199.347244 -6 14.9584713 -200.01236 0 15.5165663 -200.446472 -6 16.2684841 -200.597244 0 17.1235352 -200.446472 -6 17.9785843 -200.01236 0 18.7305031 -199.347244 -6 19.2885971 -198.531357 0 19.5855522 -197.663132 -6 19.5855522 -196.847244 0 19.2885971 117.651939 -6 163.283539 118.086052 0 162.531601 118.236832 -6 161.676559 118.236832 -6 161.676559 118.086052 0 162.531601 118.086052 0 160.821518 117.651939 -6 160.069595 116.986832 0 159.511505 116.170937 -6 159.214539 115.302704 0 159.214539 114.486832 -6 159.511505 113.821716 0 160.069595 113.387596 -6 160.821518 113.236832 0 161.676559 113.387596 -6 162.531601 113.821716 0 163.283539 114.486832 -6 163.841629 115.302704 0 164.13858 116.170937 -6 164.13858 116.986832 0 163.841629 -27.7999992 -6 -27.7999992 27.7999992 -6 -27.7999992 -27.7999992 0 -27.7999992 27.7999992 0 -27.7999992 -27.7999992 -6 27.7999992 -27.7999992 -6 -27.7999992 -27.7999992 0 27.7999992 -27.7999992 0 -27.7999992 27.7999992 -6 27.7999992 -27.7999992 -6 27.7999992 27.7999992 0 27.7999992 -27.7999992 0 27.7999992 27.7999992 -6 -27.7999992 27.7999992 -6 27.7999992 27.7999992 0 -27.7999992 27.7999992 0 27.7999992 -236.94397 0 -6.89585686 -236.94397 -6 -6.89585686 -238.277023 0 -7.1358819 -238.277023 -6 -7.1358819 -239.457306 0 -6.47140884 -239.457306 -6 -6.47140884 -239.943497 0 -5.2071991 -239.943497 -6 -5.2071991 -233.800919 -6 -5.081213 -236.94397 -6 -6.89585686 -233.800919 0 -5.081213 -236.94397 0 -6.89585686 -187.137787 0 -15.8678331 -187.137787 -6 -15.8678331 -193.246964 0 -9.84691143 -193.246964 -6 -9.84691143 -200.524551 -6 -5.30708694 -200.524551 0 -5.30708694 -208.618561 -6 -2.46795988 -208.618561 0 -2.46795988 -217.137451 -6 -1.46686399 -217.137451 0 -1.46686399 -225.669113 -6 -2.35222411 -225.669113 0 -2.35222411 -233.800919 0 -5.081213 -233.800919 -6 -5.081213 -107.310837 -6 -154.132172 -187.137787 -6 -15.8678331 -107.310837 0 -154.132172 -187.137787 0 -15.8678331 -121.300919 0 -199.93692 -121.300919 -6 -199.93692 -114.871643 0 -194.259094 -114.871643 -6 -194.259094 -109.839058 -6 -187.313126 -109.839058 0 -187.313126 -106.446602 -6 -179.434998 -106.446602 0 -179.434998 -104.858353 -6 -171.005814 -104.858353 0 -171.005814 -105.151154 -6 -162.433319 -105.151154 0 -162.433319 -107.310837 0 -154.132172 -107.310837 -6 -154.132172 -124.443977 -6 -201.751572 -121.300919 -6 -199.93692 -124.443977 0 -201.751572 -121.300919 0 -199.93692 -124.481316 0 -205.193573 -124.481316 -6 -205.193573 -125.333061 0 -204.140411 -125.333061 -6 -204.140411 -125.318367 0 -202.786011 -125.318367 -6 -202.786011 -124.443977 0 -201.751572 -124.443977 -6 -201.751572 124.481316 0 -205.193573 124.481316 -6 -205.193573 103.559418 0 -216.507385 103.559418 -6 -216.507385 81.6203995 0 -225.694733 81.6203995 -6 -225.694733 58.8797226 0 -232.66539 58.8797226 -6 -232.66539 35.5607567 0 -237.350861 35.5607567 -6 -237.350861 11.89252 0 -239.705154 11.89252 -6 -239.705154 -11.89252 0 -239.705154 -11.89252 -6 -239.705154 -35.5607567 0 -237.350861 -35.5607567 -6 -237.350861 -58.8797226 0 -232.66539 -58.8797226 -6 -232.66539 -81.6203995 0 -225.694733 -81.6203995 -6 -225.694733 -103.559418 0 -216.507385 -103.559418 -6 -216.507385 -124.481316 0 -205.193573 -124.481316 -6 -205.193573 124.443977 0 -201.751572 124.443977 -6 -201.751572 125.318367 0 -202.786011 125.318367 -6 -202.786011 125.333061 0 -204.140411 125.333061 -6 -204.140411 124.481316 0 -205.193573 124.481316 -6 -205.193573 121.300919 -6 -199.93692 124.443977 -6 -201.751572 121.300919 0 -199.93692 124.443977 0 -201.751572 107.310837 0 -154.132172 107.310837 -6 -154.132172 105.151154 0 -162.433319 105.151154 -6 -162.433319 104.858353 -6 -171.005814 104.858353 0 -171.005814 106.446602 -6 -179.434998 106.446602 0 -179.434998 109.839058 -6 -187.313126 109.839058 0 -187.313126 114.871643 -6 -194.259094 114.871643 0 -194.259094 121.300919 0 -199.93692 121.300919 -6 -199.93692 187.137787 -6 -15.8678331 107.310837 -6 -154.132172 187.137787 0 -15.8678331 107.310837 0 -154.132172 233.800919 0 -5.081213 233.800919 -6 -5.081213 225.669113 0 -2.35222411 225.669113 -6 -2.35222411 217.137451 -6 -1.46686399 217.137451 0 -1.46686399 208.618561 -6 -2.46795988 208.618561 0 -2.46795988 200.524551 -6 -5.30708694 200.524551 0 -5.30708694 193.246964 -6 -9.84691143 193.246964 0 -9.84691143 187.137787 0 -15.8678331 187.137787 -6 -15.8678331 236.94397 -6 -6.89585686 233.800919 -6 -5.081213 236.94397 0 -6.89585686 233.800919 0 -5.081213 239.943497 0 -5.2071991 239.943497 -6 -5.2071991 239.457306 0 -6.47140884 239.457306 -6 -6.47140884 238.277023 0 -7.1358819 238.277023 -6 -7.1358819 236.94397 0 -6.89585686 236.94397 -6 -6.89585686 115.462189 0 210.400772 115.462189 -6 210.400772 135.721176 0 197.938782 135.721176 -6 197.938782 154.647171 0 183.5327 154.647171 -6 183.5327 172.054276 0 167.32402 172.054276 -6 167.32402 187.771484 0 149.471954 187.771484 -6 149.471954 201.644501 0 130.15181 201.644501 -6 130.15181 213.537018 0 109.553352 213.537018 -6 109.553352 223.33226 0 87.8789139 223.33226 -6 87.8789139 230.93399 0 65.3413544 230.93399 -6 65.3413544 236.267563 0 42.1620255 236.267563 -6 42.1620255 239.280609 0 18.5685997 239.280609 -6 18.5685997 239.943497 0 -5.2071991 239.943497 -6 -5.2071991 112.5 0 208.64743 112.5 -6 208.64743 112.958649 0 209.92189 112.958649 -6 209.92189 114.124252 0 210.611816 114.124252 -6 210.611816 115.462189 0 210.400772 115.462189 -6 210.400772 112.5 -6 205.018143 112.5 -6 208.64743 112.5 0 205.018143 112.5 0 208.64743 79.8269501 0 170 79.8269501 -6 170 88.0958099 0 172.280228 88.0958099 -6 172.280228 95.6662064 -6 176.312897 95.6662064 0 176.312897 102.171967 -6 181.902969 102.171967 0 181.902969 107.298386 -6 188.779968 107.298386 0 188.779968 110.79747 -6 196.611313 110.79747 0 196.611313 112.5 0 205.018143 112.5 -6 205.018143 -79.8269501 -6 170 79.8269501 -6 170 -79.8269501 0 170 79.8269501 0 170 -112.5 0 205.018143 -112.5 -6 205.018143 -110.79747 0 196.611313 -110.79747 -6 196.611313 -107.298386 -6 188.779968 -107.298386 0 188.779968 -102.171967 -6 181.902969 -102.171967 0 181.902969 -95.6662064 -6 176.312897 -95.6662064 0 176.312897 -88.0958099 -6 172.280228 -88.0958099 0 172.280228 -79.8269501 0 170 -79.8269501 -6 170 -112.5 -6 208.64743 -112.5 -6 205.018143 -112.5 0 208.64743 -112.5 0 205.018143 -115.462189 0 210.400772 -115.462189 -6 210.400772 -114.124252 0 210.611816 -114.124252 -6 210.611816 -112.958649 0 209.92189 -112.958649 -6 209.92189 -112.5 0 208.64743 -112.5 -6 208.64743 -239.943497 0 -5.2071991 -239.943497 -6 -5.2071991 -239.280609 0 18.5685997 -239.280609 -6 18.5685997 -236.267563 0 42.1620255 -236.267563 -6 42.1620255 -230.93399 0 65.3413544 -230.93399 -6 65.3413544 -223.33226 0 87.8789139 -223.33226 -6 87.8789139 -213.537018 0 109.553352 -213.537018 -6 109.553352 -201.644501 0 130.15181 -201.644501 -6 130.15181 -187.771484 0 149.471954 -187.771484 -6 149.471954 -172.054276 0 167.32402 -172.054276 -6 167.32402 -154.647171 0 183.5327 -154.647171 -6 183.5327 -135.721176 0 197.938782 -135.721176 -6 197.938782 -115.462189 0 210.400772 -115.462189 -6 210.400772 82.3040924 0 -181.725983 58.8797226 0 -232.66539 81.7192078 0 -180.119019 35.5607567 0 -237.350861 11.89252 0 -239.705154 90.6161118 0 -202.139633 83.7850876 0 -182.581039 91.2009964 0 -200.532669 85.4692078 0 -182.284088 92.6819916 0 -199.677628 86.5684433 0 -180.97406 94.3661118 0 -199.974579 109.839058 0 -187.313126 95.4653473 0 -201.284576 114.871643 0 -194.259094 95.4653473 0 -202.99469 103.559418 0 -216.507385 94.3661118 0 -204.304688 92.6819916 0 -204.601654 81.6203995 0 -225.694733 91.2009964 0 -203.746613 106.446602 0 -179.434998 86.5684433 0 -179.263977 104.858353 0 -171.005814 85.4692078 0 -177.953949 105.151154 0 -162.433319 83.7850876 0 -177.656998 107.310837 0 -154.132172 82.3040924 0 -178.512039 27.7999992 0 -27.7999992 -79.8923798 0 -180.170425 -27.7999992 0 -27.7999992 -80.9916077 0 -178.860413 -107.310837 0 -154.132172 -82.6757355 0 -178.563461 -105.151154 0 -162.433319 -104.858353 0 -171.005814 -84.156723 0 -179.418503 -84.7416077 0 -181.025467 -11.89252 0 -239.705154 -223.531219 0 22.0358658 -224.116119 0 20.428896 -239.280609 0 18.5685997 -223.531219 0 18.8219261 -225.669113 0 -2.35222411 -222.050232 0 17.9668751 -217.137451 0 -1.46686399 -220.366119 0 18.2638321 -208.618561 0 -2.46795988 -200.01236 0 15.5165663 -198.531357 0 14.6615152 -219.266891 0 19.5738468 -200.597244 0 17.1235352 -219.266891 0 21.2839451 -200.01236 0 18.7305031 -220.366119 0 22.5939579 -198.531357 0 19.5855522 -230.93399 0 65.3413544 -196.847244 0 19.2885971 -223.33226 0 87.8789139 -213.537018 0 109.553352 -236.267563 0 42.1620255 -222.050232 0 22.8909168 219.701004 0 18.8219261 200.233643 0 18.5376987 219.116119 0 20.428896 200.233643 0 20.2477989 219.701004 0 22.0358658 199.13443 0 21.5578098 221.182007 0 22.8909168 236.267563 0 42.1620255 222.866119 0 22.5939579 239.280609 0 18.5685997 223.965347 0 21.2839451 223.965347 0 19.5738468 222.866119 0 18.2638321 225.669113 0 -2.35222411 221.182007 0 17.9668751 217.137451 0 -1.46686399 208.618561 0 -2.46795988 199.13443 0 17.227684 200.524551 0 -5.30708694 197.450287 0 16.9307289 193.246964 0 -9.84691143 195.969315 0 17.78578 187.137787 0 -15.8678331 195.38443 0 19.3927479 27.7999992 0 27.7999992 195.969315 0 20.9997177 115.302704 0 159.214539 213.537018 0 109.553352 116.986832 0 159.511505 201.644501 0 130.15181 187.771484 0 149.471954 172.054276 0 167.32402 118.086052 0 160.821518 129.75 0 179.54567 118.086052 0 162.531601 128.065887 0 179.248718 116.986832 0 163.841629 126.584892 0 180.10376 115.302704 0 164.13858 102.171967 0 181.902969 113.821716 0 163.283539 95.6662064 0 176.312897 113.236832 0 161.676559 88.0958099 0 172.280228 113.821716 0 160.069595 79.8269501 0 170 -115.793152 0 161.388519 -172.054276 0 167.32402 -116.378036 0 162.995483 -128.934113 0 179.248718 -115.793152 0 164.602448 -127.250008 0 179.54567 -114.312164 0 165.457504 -126.150772 0 180.855698 -102.171967 0 181.902969 -107.298386 0 188.779968 -126.150772 0 182.565781 -110.79747 0 196.611313 -127.250008 0 183.875809 -135.721176 0 197.938782 -128.934113 0 184.17276 -130.415115 0 183.317703 -187.771484 0 149.471954 -114.312164 0 160.533463 -201.644501 0 130.15181 -112.628036 0 160.830414 -27.7999992 0 27.7999992 -195.748032 0 17.9785843 -79.8269501 0 170 -111.528809 0 162.140427 -88.0958099 0 172.280228 -111.528809 0 163.85054 -95.6662064 0 176.312897 -112.628036 0 165.160538 230.93399 0 65.3413544 197.450287 0 21.8547688 223.33226 0 87.8789139 -106.446602 0 -179.434998 -84.156723 0 -182.632446 -93.5502319 0 -199.677628 -91.8661118 0 -199.974579 -82.6757355 0 -183.487488 -90.7668915 0 -201.284576 -80.9916077 0 -183.190536 -90.7668915 0 -202.99469 -58.8797226 0 -232.66539 -81.6203995 0 -225.694733 -79.8923798 0 -181.880524 -35.5607567 0 -237.350861 -131 0 181.710739 -154.647171 0 183.5327 -130.415115 0 180.10376 -95.0312195 0 -203.746613 -103.559418 0 -216.507385 -95.6161118 0 -202.139633 -114.871643 0 -194.259094 -95.0312195 0 -200.532669 -109.839058 0 -187.313126 -93.5502319 0 -204.601654 -91.8661118 0 -204.304688 126.000008 0 181.710739 107.298386 0 188.779968 126.584892 0 183.317703 110.79747 0 196.611313 128.065887 0 184.17276 135.721176 0 197.938782 129.75 0 183.875809 130.849228 0 182.565781 154.647171 0 183.5327 130.849228 0 180.855698 -200.524551 0 -5.30708694 -196.847244 0 14.9584713 -193.246964 0 -9.84691143 -195.748032 0 16.2684841 -187.137787 0 -15.8678331 -233.800919 0 -5.081213 -239.943497 0 -5.2071991 -236.94397 0 -6.89585686 -239.457306 0 -6.47140884 -238.277023 0 -7.1358819 -112.5 0 205.018143 -115.462189 0 210.400772 -112.5 0 208.64743 -112.958649 0 209.92189 -114.124252 0 210.611816 112.5 0 205.018143 115.462189 0 210.400772 112.5 0 208.64743 112.958649 0 209.92189 114.124252 0 210.611816 233.800919 0 -5.081213 239.943497 0 -5.2071991 236.94397 0 -6.89585686 239.457306 0 -6.47140884 238.277023 0 -7.1358819 121.300919 0 -199.93692 124.481316 0 -205.193573 124.443977 0 -201.751572 125.333061 0 -204.140411 125.318367 0 -202.786011 -121.300919 0 -199.93692 -124.481316 0 -205.193573 -124.443977 0 -201.751572 -125.333061 0 -204.140411 -125.318367 0 -202.786011 86.1343155 -6 -181.725983 106.446602 -6 -179.434998 86.7192078 -6 -180.119019 104.858353 -6 -171.005814 86.1343155 -6 -178.512039 84.6533279 -6 -177.656998 105.151154 -6 -162.433319 107.310837 -6 -154.132172 84.6533279 -6 -182.581039 91.8661118 -6 -199.974579 93.5502319 -6 -199.677628 109.839058 -6 -187.313126 95.0312195 -6 -200.532669 114.871643 -6 -194.259094 95.6161118 -6 -202.139633 103.559418 -6 -216.507385 95.0312195 -6 -203.746613 93.5502319 -6 -204.601654 90.7668915 -6 -201.284576 82.9692078 -6 -182.284088 58.8797226 -6 -232.66539 81.8699722 -6 -180.97406 35.5607567 -6 -237.350861 81.8699722 -6 -179.263977 11.89252 -6 -239.705154 -79.7416077 -6 -181.025467 -11.89252 -6 -239.705154 -35.5607567 -6 -237.350861 -80.3264999 -6 -182.632446 -58.8797226 -6 -232.66539 -90.6161118 -6 -202.139633 -81.6203995 -6 -225.694733 -91.2009964 -6 -203.746613 -92.6819916 -6 -204.601654 82.9692078 -6 -177.953949 27.7999992 -6 -27.7999992 -80.3264999 -6 -179.418503 -219.701004 -6 18.8219261 -200.446472 -6 16.2684841 -219.116119 -6 20.428896 -200.446472 -6 17.9785843 -219.701004 -6 22.0358658 -199.347244 -6 19.2885971 -221.182007 -6 22.8909168 -230.93399 -6 65.3413544 -236.267563 -6 42.1620255 -221.182007 -6 17.9668751 -217.137451 -6 -1.46686399 -208.618561 -6 -2.46795988 -199.347244 -6 14.9584713 -200.524551 -6 -5.30708694 -197.663132 -6 14.6615152 -196.182144 -6 15.5165663 -193.246964 -6 -9.84691143 -187.137787 -6 -15.8678331 -225.669113 -6 -2.35222411 -222.866119 -6 18.2638321 -239.280609 -6 18.5685997 -223.965347 -6 19.5738468 -223.965347 -6 21.2839451 -222.866119 -6 22.5939579 81.6203995 -6 -225.694733 91.8661118 -6 -204.304688 90.7668915 -6 -202.99469 223.531219 -6 22.0358658 224.116119 -6 20.428896 239.280609 -6 18.5685997 223.531219 -6 18.8219261 225.669113 -6 -2.35222411 222.050232 -6 17.9668751 217.137451 -6 -1.46686399 220.366119 -6 18.2638321 208.618561 -6 -2.46795988 199.799545 -6 17.78578 198.318542 -6 16.9307289 219.266891 -6 19.5738468 200.38443 -6 19.3927479 219.266891 -6 21.2839451 199.799545 -6 20.9997177 220.366119 -6 22.5939579 198.318542 -6 21.8547688 236.267563 -6 42.1620255 230.93399 -6 65.3413544 222.050232 -6 22.8909168 -111.962929 -6 161.388519 -88.0958099 -6 172.280228 -111.378036 -6 162.995483 -95.6662064 -6 176.312897 -111.962929 -6 164.602448 -102.171967 -6 181.902969 -113.443916 -6 165.457504 -126.000008 -6 181.710739 -126.584892 -6 180.10376 -79.8269501 -6 170 -113.443916 -6 160.533463 -27.7999992 -6 27.7999992 -213.537018 -6 109.553352 -196.182144 -6 18.7305031 -223.33226 -6 87.8789139 -197.663132 -6 19.5855522 -115.128036 -6 160.830414 -201.644501 -6 130.15181 -187.771484 -6 149.471954 -172.054276 -6 167.32402 -116.227272 -6 162.140427 -129.75 -6 179.54567 -116.227272 -6 163.85054 -128.065887 -6 179.248718 -115.128036 -6 165.160538 200.524551 -6 -5.30708694 196.63443 -6 17.227684 193.246964 -6 -9.84691143 195.535187 -6 18.5376987 187.137787 -6 -15.8678331 27.7999992 -6 27.7999992 195.535187 -6 20.2477989 116.170937 -6 159.214539 114.486832 -6 159.511505 196.63443 -6 21.5578098 213.537018 -6 109.553352 201.644501 -6 130.15181 223.33226 -6 87.8789139 -81.8074875 -6 -183.487488 -91.2009964 -6 -200.532669 -83.4916077 -6 -183.190536 -92.6819916 -6 -199.677628 -84.5908432 -6 -181.880524 -94.3661118 -6 -199.974579 -106.446602 -6 -179.434998 -109.839058 -6 -187.313126 -84.5908432 -6 -180.170425 -104.858353 -6 -171.005814 -83.4916077 -6 -178.860413 -105.151154 -6 -162.433319 -81.8074875 -6 -178.563461 -107.310837 -6 -154.132172 -27.7999992 -6 -27.7999992 -154.647171 -6 183.5327 -130.849228 -6 180.855698 -130.849228 -6 182.565781 -135.721176 -6 197.938782 -129.75 -6 183.875809 -128.065887 -6 184.17276 -110.79747 -6 196.611313 -126.584892 -6 183.317703 -107.298386 -6 188.779968 -103.559418 -6 -216.507385 -94.3661118 -6 -204.304688 -95.4653473 -6 -202.99469 -114.871643 -6 -194.259094 -95.4653473 -6 -201.284576 130.415115 -6 183.317703 131 -6 181.710739 154.647171 -6 183.5327 130.415115 -6 180.10376 172.054276 -6 167.32402 118.236832 -6 161.676559 117.651939 -6 160.069595 128.934113 -6 179.248718 117.651939 -6 163.283539 127.250008 -6 179.54567 116.170937 -6 164.13858 126.150772 -6 180.855698 102.171967 -6 181.902969 107.298386 -6 188.779968 126.150772 -6 182.565781 110.79747 -6 196.611313 127.250008 -6 183.875809 135.721176 -6 197.938782 128.934113 -6 184.17276 -195.597244 -6 17.1235352 187.771484 -6 149.471954 79.8269501 -6 170 113.387596 -6 160.821518 88.0958099 -6 172.280228 113.387596 -6 162.531601 95.6662064 -6 176.312897 114.486832 -6 163.841629 -112.5 -6 205.018143 -115.462189 -6 210.400772 -112.5 -6 208.64743 -112.958649 -6 209.92189 -233.800919 -6 -5.081213 -239.943497 -6 -5.2071991 -236.94397 -6 -6.89585686 -239.457306 -6 -6.47140884 -238.277023 -6 -7.1358819 -121.300919 -6 -199.93692 -124.481316 -6 -205.193573 -124.443977 -6 -201.751572 -125.333061 -6 -204.140411 -125.318367 -6 -202.786011 121.300919 -6 -199.93692 124.481316 -6 -205.193573 124.443977 -6 -201.751572 125.333061 -6 -204.140411 125.318367 -6 -202.786011 233.800919 -6 -5.081213 239.943497 -6 -5.2071991 236.94397 -6 -6.89585686 239.457306 -6 -6.47140884 238.277023 -6 -7.1358819 112.5 -6 205.018143 115.462189 -6 210.400772 112.5 -6 208.64743 112.958649 -6 209.92189 114.124252 -6 210.611816 -114.124252 -6 210.611816 </float_array>
          <technique_common>
            <accessor count="912" offset="0" source="#meshesQ0S-positions-array" stride="3">
              <param name="X" type="float" />
              <param name="Y" type="float" />
              <param name="Z" type="float" />
            </accessor>
          </technique_common>
        </source>
        <source id="meshesQ0S-normals" name="meshesQ0S-normals">
          <float_array id="meshesQ0S-normals-array" count="2736"> -0.766041458 0 -0.642791152 -0.939692378 0 -0.342020839 -1 0 -0 -1 0 -0 -0.939692378 0 -0.342020839 -0.939692378 0 0.342020839 -0.766041458 0 0.642791152 -0.499998003 0 0.86602658 -0.173649549 0 0.984807491 0.173649549 -0 0.984807491 0.499998003 -0 0.86602658 0.766041458 -0 0.642791152 0.939692378 -0 0.342020839 1 -0 0 0.939692378 -0 -0.342020839 0.766041458 -0 -0.642791152 0.499998003 -0 -0.86602658 0.173649549 -0 -0.984807491 -0.173649549 0 -0.984807491 -0.499998003 0 -0.86602658 -0.766041458 0 -0.642791152 -0.939692378 0 -0.342020839 -1 0 -0 -1 0 -0 -0.939692378 0 -0.342020839 -0.939692378 0 0.342020839 -0.766041458 0 0.642791152 -0.499998003 0 0.86602658 -0.173649549 0 0.984807491 0.173649549 -0 0.984807491 0.499998003 -0 0.86602658 0.766041458 -0 0.642791152 0.939692378 -0 0.342020839 1 -0 0 0.939692378 -0 -0.342020839 0.766041458 -0 -0.642791152 0.499998003 -0 -0.86602658 0.173649549 -0 -0.984807491 -0.173649549 0 -0.984807491 -0.499998003 0 -0.86602658 -0.766041458 0 -0.642791152 -0.939692378 0 -0.342020839 -1 0 -0 -1 0 -0 -0.939692378 0 -0.342020839 -0.939692378 0 0.342020839 -0.766041458 0 0.642791152 -0.499998003 0 0.86602658 -0.173649549 0 0.984807491 0.173649549 -0 0.984807491 0.499998003 -0 0.86602658 0.766041458 -0 0.642791152 0.939692378 -0 0.342020839 1 -0 0 0.939692378 -0 -0.342020839 0.766041458 -0 -0.642791152 0.499998003 -0 -0.86602658 0.173649549 -0 -0.984807491 -0.173649549 0 -0.984807491 -0.499998003 0 -0.86602658 -0.766041458 0 -0.642791152 -0.939692378 0 -0.342020839 -1 0 -0 -1 0 -0 -0.939692378 0 -0.342020839 -0.939692378 0 0.342020839 -0.766041458 0 0.642791152 -0.499998003 0 0.86602658 -0.173649549 0 0.984807491 0.173649549 -0 0.984807491 0.499998003 -0 0.86602658 0.766041458 -0 0.642791152 0.939692378 -0 0.342020839 1 -0 0 0.939692378 -0 -0.342020839 0.766041458 -0 -0.642791152 0.499998003 -0 -0.86602658 0.173649549 -0 -0.984807491 -0.173649549 0 -0.984807491 -0.499998003 0 -0.86602658 -0.766041458 0 -0.642791152 -0.939692378 0 -0.342020839 -1 0 -0 -1 0 -0 -0.939692378 0 -0.342020839 -0.939692378 0 0.342020839 -0.766041458 0 0.642791152 -0.499998003 0 0.86602658 -0.173649549 0 0.984807491 0.173649549 -0 0.984807491 0.499998003 -0 0.86602658 0.766041458 -0 0.642791152 0.939692378 -0 0.342020839 1 -0 0 0.939692378 -0 -0.342020839 0.766041458 -0 -0.642791152 0.499998003 -0 -0.86602658 0.173649549 -0 -0.984807491 -0.173649549 0 -0.984807491 -0.499998003 0 -0.86602658 -0.766041458 0 -0.642791152 -0.939692378 0 -0.342020839 -1 0 -0 -1 0 -0 -0.939692378 0 -0.342020839 -0.939692378 0 0.342020839 -0.766041458 0 0.642791152 -0.499998003 0 0.86602658 -0.173649549 0 0.984807491 0.173649549 -0 0.984807491 0.499998003 -0 0.86602658 0.766041458 -0 0.642791152 0.939692378 -0 0.342020839 1 -0 0 0.939692378 -0 -0.342020839 0.766041458 -0 -0.642791152 0.499998003 -0 -0.86602658 0.173649549 -0 -0.984807491 -0.173649549 0 -0.984807491 -0.499998003 0 -0.86602658 -0.766041458 0 -0.642791152 -0.939692378 0 -0.342020839 -1 0 -0 -1 0 -0 -0.939692378 0 -0.342020839 -0.939692378 0 0.342020839 -0.766041458 0 0.642791152 -0.499998003 0 0.86602658 -0.173649549 0 0.984807491 0.173649549 -0 0.984807491 0.499998003 -0 0.86602658 0.766041458 -0 0.642791152 0.939692378 -0 0.342020839 1 -0 0 0.939692378 -0 -0.342020839 0.766041458 -0 -0.642791152 0.499998003 -0 -0.86602658 0.173649549 -0 -0.984807491 -0.173649549 0 -0.984807491 -0.499998003 0 -0.86602658 -0.766041458 0 -0.642791152 -0.939692378 0 -0.342020839 -1 0 -0 -1 0 -0 -0.939692378 0 -0.342020839 -0.939692378 0 0.342020839 -0.766041458 0 0.642791152 -0.499998003 0 0.86602658 -0.173649549 0 0.984807491 0.173649549 -0 0.984807491 0.499998003 -0 0.86602658 0.766041458 -0 0.642791152 0.939692378 -0 0.342020839 1 -0 0 0.939692378 -0 -0.342020839 0.766041458 -0 -0.642791152 0.499998003 -0 -0.86602658 0.173649549 -0 -0.984807491 -0.173649549 0 -0.984807491 -0.499998003 0 -0.86602658 -0.766041458 0 -0.642791152 -0.939692378 0 -0.342020839 -1 0 -0 -1 0 -0 -0.939692378 0 -0.342020839 -0.939692378 0 0.342020839 -0.766041458 0 0.642791152 -0.499998003 0 0.86602658 -0.173649549 0 0.984807491 0.173649549 -0 0.984807491 0.499998003 -0 0.86602658 0.766041458 -0 0.642791152 0.939692378 -0 0.342020839 1 -0 0 0.939692378 -0 -0.342020839 0.766041458 -0 -0.642791152 0.499998003 -0 -0.86602658 0.173649549 -0 -0.984807491 -0.173649549 0 -0.984807491 -0.499998003 0 -0.86602658 -0.766041458 0 -0.642791152 -0.939692378 0 -0.342020839 -1 0 -0 -1 0 -0 -0.939692378 0 -0.342020839 -0.939692378 0 0.342020839 -0.766041458 0 0.642791152 -0.499998003 0 0.86602658 -0.173649549 0 0.984807491 0.173649549 -0 0.984807491 0.499998003 -0 0.86602658 0.766041458 -0 0.642791152 0.939692378 -0 0.342020839 1 -0 0 0.939692378 -0 -0.342020839 0.766041458 -0 -0.642791152 0.499998003 -0 -0.86602658 0.173649549 -0 -0.984807491 -0.173649549 0 -0.984807491 -0.499998003 0 -0.86602658 -0.766041458 0 -0.642791152 -0.939692378 0 -0.342020839 -1 0 -0 -1 0 -0 -0.939692378 0 -0.342020839 -0.939692378 0 0.342020839 -0.766041458 0 0.642791152 -0.499998003 0 0.86602658 -0.173649549 0 0.984807491 0.173649549 -0 0.984807491 0.499998003 -0 0.86602658 0.766041458 -0 0.642791152 0.939692378 -0 0.342020839 1 -0 0 0.939692378 -0 -0.342020839 0.766041458 -0 -0.642791152 0.499998003 -0 -0.86602658 0.173649549 -0 -0.984807491 -0.173649549 0 -0.984807491 -0.499998003 0 -0.86602658 -0.766041458 0 -0.642791152 -0.939692378 0 -0.342020839 -1 0 -0 -1 0 -0 -0.939692378 0 -0.342020839 -0.939692378 0 0.342020839 -0.766041458 0 0.642791152 -0.499998003 0 0.86602658 -0.173649549 0 0.984807491 0.173649549 -0 0.984807491 0.499998003 -0 0.86602658 0.766041458 -0 0.642791152 0.939692378 -0 0.342020839 1 -0 0 0.939692378 -0 -0.342020839 0.766041458 -0 -0.642791152 0.499998003 -0 -0.86602658 0.173649549 -0 -0.984807491 -0.173649549 0 -0.984807491 -0.499998003 0 -0.86602658 -0 -0 1 -0 -0 1 -0 -0 1 -0 -0 1 1 -0 0 1 -0 0 1 -0 0 1 -0 0 0 0 -1 0 0 -1 0 0 -1 0 0 -1 -1 0 -0 -1 0 -0 -1 0 -0 -1 0 -0 0.499998003 -0 -0.86602658 0.499998003 -0 -0.86602658 -0.166519672 0 -0.986038148 -0.166519672 0 -0.986038148 -0.756668508 0 -0.653798699 -0.756668508 0 -0.653798699 -0.999764502 0 -0.0217000972 -0.999764502 0 -0.0217000972 0.499998003 -0 -0.86602658 0.499998003 -0 -0.86602658 0.499998003 -0 -0.86602658 0.499998003 -0 -0.86602658 -0.776010275 0 -0.630720258 -0.776010275 0 -0.630720258 -0.619363427 0 -0.785104394 -0.619363427 0 -0.785104394 -0.432759702 0 -0.901509345 -0.432759702 0 -0.901509345 -0.225219563 0 -0.974308014 -0.225219563 0 -0.974308014 -0.00678997952 0 -0.999976933 -0.00678997952 0 -0.999976933 0.211969212 -0 -0.977276325 0.211969212 -0 -0.977276325 0.420480698 -0 -0.907301486 0.420480698 -0 -0.907301486 -0.86602658 0 -0.499998003 -0.86602658 0 -0.499998003 -0.86602658 0 -0.499998003 -0.86602658 0 -0.499998003 -0.575507522 0 0.817796469 -0.575507522 0 0.817796469 -0.74036032 0 0.672210276 -0.74036032 0 0.672210276 -0.869399548 0 0.49410975 -0.869399548 0 0.49410975 -0.956385195 0 0.292108536 -0.956385195 0 0.292108536 -0.997110128 0 0.075970009 -0.997110128 0 0.075970009 -0.989602387 0 -0.143830344 -0.989602387 0 -0.143830344 -0.934227049 0 -0.356678873 -0.934227049 0 -0.356678873 -0.499998003 0 0.86602658 -0.499998003 0 0.86602658 -0.499998003 0 0.86602658 -0.499998003 0 0.86602658 -0.518671989 0 -0.854973316 -0.518671989 0 -0.854973316 -0.944541991 0 -0.328390688 -0.944541991 0 -0.328390688 -0.937193036 0 0.34881112 -0.937193036 0 0.34881112 -0.499998003 0 0.86602658 -0.499998003 0 0.86602658 0.518671989 -0 -0.854973316 0.518671989 -0 -0.854973316 0.43150115 -0 -0.902112365 0.43150115 -0 -0.902112365 0.340082079 -0 -0.940395772 0.340082079 -0 -0.940395772 0.245329916 -0 -0.969439626 0.245329916 -0 -0.969439626 0.148170292 -0 -0.988961875 0.148170292 -0 -0.988961875 0.0495500788 -0 -0.998771667 0.0495500788 -0 -0.998771667 -0.0495500788 0 -0.998771667 -0.0495500788 0 -0.998771667 -0.148170292 0 -0.988961875 -0.148170292 0 -0.988961875 -0.245329916 0 -0.969439626 -0.245329916 0 -0.969439626 -0.340082079 0 -0.940395772 -0.340082079 0 -0.940395772 -0.43150115 0 -0.902112365 -0.43150115 0 -0.902112365 -0.518671989 0 -0.854973316 -0.518671989 0 -0.854973316 0.499998003 -0 0.86602658 0.499998003 -0 0.86602658 0.937193036 -0 0.34881112 0.937193036 -0 0.34881112 0.944541991 -0 -0.328390688 0.944541991 -0 -0.328390688 0.518671989 -0 -0.854973316 0.518671989 -0 -0.854973316 0.499998003 -0 0.86602658 0.499998003 -0 0.86602658 0.499998003 -0 0.86602658 0.499998003 -0 0.86602658 0.934227049 -0 -0.356678873 0.934227049 -0 -0.356678873 0.989602387 -0 -0.143830344 0.989602387 -0 -0.143830344 0.997110128 -0 0.075970009 0.997110128 -0 0.075970009 0.956385195 -0 0.292108536 0.956385195 -0 0.292108536 0.869399548 -0 0.49410975 0.869399548 -0 0.49410975 0.74036032 -0 0.672210276 0.74036032 -0 0.672210276 0.575507522 -0 0.817796469 0.575507522 -0 0.817796469 0.86602658 -0 -0.499998003 0.86602658 -0 -0.499998003 0.86602658 -0 -0.499998003 0.86602658 -0 -0.499998003 -0.420480698 0 -0.907301486 -0.420480698 0 -0.907301486 -0.211969212 0 -0.977276325 -0.211969212 0 -0.977276325 0.00678997952 -0 -0.999976933 0.00678997952 -0 -0.999976933 0.225219563 -0 -0.974308014 0.225219563 -0 -0.974308014 0.432759702 -0 -0.901509345 0.432759702 -0 -0.901509345 0.619363427 -0 -0.785104394 0.619363427 -0 -0.785104394 0.776010275 -0 -0.630720258 0.776010275 -0 -0.630720258 -0.499998003 0 -0.86602658 -0.499998003 0 -0.86602658 -0.499998003 0 -0.86602658 -0.499998003 0 -0.86602658 0.999764502 -0 -0.0217000972 0.999764502 -0 -0.0217000972 0.756668508 -0 -0.653798699 0.756668508 -0 -0.653798699 0.166519672 -0 -0.986038148 0.166519672 -0 -0.986038148 -0.499998003 0 -0.86602658 -0.499998003 0 -0.86602658 0.481090486 -0 0.876670957 0.481090486 -0 0.876670957 0.565503836 -0 0.824745655 0.565503836 -0 0.824745655 0.644361138 -0 0.764721334 0.644361138 -0 0.764721334 0.716893137 -0 0.697183073 0.716893137 -0 0.697183073 0.7823807 -0 0.622800529 0.7823807 -0 0.622800529 0.840186417 -0 0.542297721 0.840186417 -0 0.542297721 0.889739037 -0 0.456469506 0.889739037 -0 0.456469506 0.930551648 -0 0.366160661 0.930551648 -0 0.366160661 0.96222347 -0 0.272260964 0.96222347 -0 0.272260964 0.98444742 -0 0.175679535 0.98444742 -0 0.175679535 0.997002423 -0 0.0773701891 0.997002423 -0 0.0773701891 0.999764502 -0 -0.0217000972 0.999764502 -0 -0.0217000972 -1 0 -0 -1 0 -0 -0.770672202 0 0.637231767 -0.770672202 0 0.637231767 -0.187880367 0 0.98219192 -0.187880367 0 0.98219192 0.481090486 -0 0.876670957 0.481090486 -0 0.876670957 -1 0 -0 -1 0 -0 -1 0 -0 -1 0 -0 -0.158220619 0 0.98740381 -0.158220619 0 0.98740381 -0.370238662 0 0.92893666 -0.370238662 0 0.92893666 -0.564352632 0 0.825533807 -0.564352632 0 0.825533807 -0.731167674 0 0.682197809 -0.731167674 0 0.682197809 -0.862609804 0 0.505869865 -0.862609804 0 0.505869865 -0.952332854 0 0.305060893 -0.952332854 0 0.305060893 -0.995986819 0 0.0894997194 -0.995986819 0 0.0894997194 -0 -0 1 -0 -0 1 -0 -0 1 -0 -0 1 0.995986819 -0 0.0894997194 0.995986819 -0 0.0894997194 0.952332854 -0 0.305060893 0.952332854 -0 0.305060893 0.862609804 -0 0.505869865 0.862609804 -0 0.505869865 0.731167674 -0 0.682197809 0.731167674 -0 0.682197809 0.564352632 -0 0.825533807 0.564352632 -0 0.825533807 0.370238662 -0 0.92893666 0.370238662 -0 0.92893666 0.158220619 -0 0.98740381 0.158220619 -0 0.98740381 1 -0 0 1 -0 0 1 -0 0 1 -0 0 -0.481090486 0 0.876670957 -0.481090486 0 0.876670957 0.187880367 -0 0.98219192 0.187880367 -0 0.98219192 0.770672202 -0 0.637231767 0.770672202 -0 0.637231767 1 -0 0 1 -0 0 -0.999764502 0 -0.0217000972 -0.999764502 0 -0.0217000972 -0.997002423 0 0.0773701891 -0.997002423 0 0.0773701891 -0.98444742 0 0.175679535 -0.98444742 0 0.175679535 -0.96222347 0 0.272260964 -0.96222347 0 0.272260964 -0.930551648 0 0.366160661 -0.930551648 0 0.366160661 -0.889739037 0 0.456469506 -0.889739037 0 0.456469506 -0.840186417 0 0.542297721 -0.840186417 0 0.542297721 -0.7823807 0 0.622800529 -0.7823807 0 0.622800529 -0.716893137 0 0.697183073 -0.716893137 0 0.697183073 -0.644361138 0 0.764721334 -0.644361138 0 0.764721334 -0.565503836 0 0.824745655 -0.565503836 0 0.824745655 -0.481090486 0 0.876670957 -0.481090486 0 0.876670957 0 1 0 0 1 0 0 1 0 0 1 0 0 1 0 0 1 0 0 1 0 0 1 0 0 1 0 0 1 0 0 1 0 0 1 0 0 1 0 0 1 0 0 1 0 0 1 0 0 1 0 0 1 0 0 1 0 0 1 0 0 1 0 0 1 0 0 1 0 0 1 0 0 1 0 0 1 0 0 1 0 0 1 0 0 1 0 0 1 0 0 1 0 0 1 0 0 1 0 0 1 0 0 1 0 0 1 0 0 1 0 0 1 0 0 1 0 0 1 0 0 1 0 0 1 0 0 1 0 0 1 0 0 1 0 0 1 0 0 1 0 0 1 0 0 1 0 0 1 0 0 1 0 0 1 0 0 1 0 0 1 0 0 1 0 0 1 0 0 1 0 0 1 0 0 1 0 0 1 0 0 1 0 0 1 0 0 1 0 0 1 0 0 1 0 0 1 0 0 1 0 0 1 0 0 1 0 0 1 0 0 1 0 0 1 0 0 1 0 0 1 0 0 1 0 0 1 0 0 1 0 0 1 0 0 1 0 0 1 0 0 1 0 0 1 0 0 1 0 0 1 0 0 1 0 0 1 0 0 1 0 0 1 0 0 1 0 0 1 0 0 1 0 0 1 0 0 1 0 0 1 0 0 1 0 0 1 0 0 1 0 0 1 0 0 1 0 0 1 0 0 1 0 0 1 0 0 1 0 0 1 0 0 1 0 0 1 0 0 1 0 0 1 0 0 1 0 0 1 0 0 1 0 0 1 0 0 1 0 0 1 0 0 1 0 0 1 0 0 1 0 0 1 0 0 1 0 0 1 0 0 1 0 0 1 0 0 1 0 0 1 0 0 1 0 0 1 0 0 1 0 0 1 0 0 1 0 0 1 0 0 1 0 0 1 0 0 1 0 0 1 0 0 1 0 0 1 0 0 1 0 0 1 0 0 1 0 0 1 0 0 1 0 0 1 0 0 1 0 0 1 0 0 1 0 0 1 0 0 1 0 0 1 0 0 1 0 0 1 0 0 1 0 0 1 0 0 1 0 0 1 0 0 1 0 0 1 0 0 1 0 0 1 0 0 1 0 0 1 0 0 1 0 0 1 0 0 1 0 0 1 0 0 1 0 0 1 0 0 1 0 0 1 0 0 1 0 0 1 0 0 1 0 0 1 0 0 1 0 0 1 0 0 1 0 0 1 0 0 1 0 0 1 0 0 1 0 0 1 0 0 1 0 0 1 0 0 1 0 0 1 0 0 1 0 0 1 0 0 1 0 0 1 0 0 1 0 0 1 0 0 1 0 0 1 0 0 1 0 0 1 0 0 1 0 0 1 0 0 1 0 0 1 0 0 1 0 0 1 0 0 1 0 0 1 0 0 1 0 0 1 0 0 1 0 0 1 0 0 1 0 0 1 0 -0 -1 -0 -0 -1 -0 -0 -1 -0 -0 -1 -0 -0 -1 -0 -0 -1 -0 -0 -1 -0 -0 -1 -0 -0 -1 -0 -0 -1 -0 -0 -1 -0 -0 -1 -0 -0 -1 -0 -0 -1 -0 -0 -1 -0 -0 -1 -0 -0 -1 -0 -0 -1 -0 -0 -1 -0 -0 -1 -0 -0 -1 -0 -0 -1 -0 -0 -1 -0 -0 -1 -0 -0 -1 -0 -0 -1 -0 -0 -1 -0 -0 -1 -0 -0 -1 -0 -0 -1 -0 -0 -1 -0 -0 -1 -0 -0 -1 -0 -0 -1 -0 -0 -1 -0 -0 -1 -0 -0 -1 -0 -0 -1 -0 -0 -1 -0 -0 -1 -0 -0 -1 -0 -0 -1 -0 -0 -1 -0 -0 -1 -0 -0 -1 -0 -0 -1 -0 -0 -1 -0 -0 -1 -0 -0 -1 -0 -0 -1 -0 -0 -1 -0 -0 -1 -0 -0 -1 -0 -0 -1 -0 -0 -1 -0 -0 -1 -0 -0 -1 -0 -0 -1 -0 -0 -1 -0 -0 -1 -0 -0 -1 -0 -0 -1 -0 -0 -1 -0 -0 -1 -0 -0 -1 -0 -0 -1 -0 -0 -1 -0 -0 -1 -0 -0 -1 -0 -0 -1 -0 -0 -1 -0 -0 -1 -0 -0 -1 -0 -0 -1 -0 -0 -1 -0 -0 -1 -0 -0 -1 -0 -0 -1 -0 -0 -1 -0 -0 -1 -0 -0 -1 -0 -0 -1 -0 -0 -1 -0 -0 -1 -0 -0 -1 -0 -0 -1 -0 -0 -1 -0 -0 -1 -0 -0 -1 -0 -0 -1 -0 -0 -1 -0 -0 -1 -0 -0 -1 -0 -0 -1 -0 -0 -1 -0 -0 -1 -0 -0 -1 -0 -0 -1 -0 -0 -1 -0 -0 -1 -0 -0 -1 -0 -0 -1 -0 -0 -1 -0 -0 -1 -0 -0 -1 -0 -0 -1 -0 -0 -1 -0 -0 -1 -0 -0 -1 -0 -0 -1 -0 -0 -1 -0 -0 -1 -0 -0 -1 -0 -0 -1 -0 -0 -1 -0 -0 -1 -0 -0 -1 -0 -0 -1 -0 -0 -1 -0 -0 -1 -0 -0 -1 -0 -0 -1 -0 -0 -1 -0 -0 -1 -0 -0 -1 -0 -0 -1 -0 -0 -1 -0 -0 -1 -0 -0 -1 -0 -0 -1 -0 -0 -1 -0 -0 -1 -0 -0 -1 -0 -0 -1 -0 -0 -1 -0 -0 -1 -0 -0 -1 -0 -0 -1 -0 -0 -1 -0 -0 -1 -0 -0 -1 -0 -0 -1 -0 -0 -1 -0 -0 -1 -0 -0 -1 -0 -0 -1 -0 -0 -1 -0 -0 -1 -0 -0 -1 -0 -0 -1 -0 -0 -1 -0 -0 -1 -0 -0 -1 -0 -0 -1 -0 -0 -1 -0 -0 -1 -0 -0 -1 -0 -0 -1 -0 -0 -1 -0 -0 -1 -0 -0 -1 -0 -0 -1 -0 -0 -1 -0 -0 -1 -0 -0 -1 -0 -0 -1 -0 -0 -1 -0 -0 -1 -0 -0 -1 -0 -0 -1 -0 -0 -1 -0 -0 -1 -0 -0 -1 -0 -0 -1 -0 -0 -1 -0 -0 -1 -0 -0 -1 -0 -0 -1 -0 -0 -1 -0 -0 -1 -0 -0 -1 -0 -0 -1 -0 -0 -1 -0 -0 -1 -0 -0 -1 -0 -0 -1 -0 -0 -1 -0 -0 -1 -0 -0 -1 -0 -0 -1 -0 -0 -1 -0 -0 -1 -0 -0 -1 -0 -0 -1 -0 -0 -1 -0 -0 -1 -0 -0 -1 -0 -0 -1 -0 -0 -1 -0 -0 -1 -0 -0 -1 -0 -0 -1 -0 -0 -1 -0 -0 -1 -0 -0 -1 -0 -0 -1 -0 -0 -1 -0 -0 -1 -0 </float_array>
          <technique_common>
            <accessor count="912" offset="0" source="#meshesQ0S-normals-array" stride="3">
              <param name="X" type="float" />
              <param name="Y" type="float" />
              <param name="Z" type="float" />
            </accessor>
          </technique_common>
        </source>
        <source id="meshesQ0S-tex0" name="meshesQ0S-tex0">
          <float_array id="meshesQ0S-tex0-array" count="1824"> 0.600000024 1.610865 0 1.69813204 0.600000024 1.78539801 0.600000024 0.214601994 0 0.127335012 0 0.301868021 0.600000024 0.389135003 0 0.476400971 0.600000024 0.563668013 0 0.650933981 0.600000024 0.738201022 0 0.82546699 0.600000024 0.912734032 0 1 0.600000024 1.08726597 0 1.17453301 0.600000024 1.26179898 0 1.34906602 0.600000024 1.43633199 0 1.52359903 0.600000024 1.610865 0 1.69813204 0.600000024 1.78539801 0.600000024 0.214601994 0 0.127335012 0 0.301868021 0.600000024 0.389135003 0 0.476400971 0.600000024 0.563668013 0 0.650933981 0.600000024 0.738201022 0 0.82546699 0.600000024 0.912734032 0 1 0.600000024 1.08726597 0 1.17453301 0.600000024 1.26179898 0 1.34906602 0.600000024 1.43633199 0 1.52359903 0.600000024 1.610865 0 1.69813204 0.600000024 1.78539801 0.600000024 0.214601994 0 0.127335012 0 0.301868021 0.600000024 0.389135003 0 0.476400971 0.600000024 0.563668013 0 0.650933981 0.600000024 0.738201022 0 0.82546699 0.600000024 0.912734032 0 1 0.600000024 1.08726597 0 1.17453301 0.600000024 1.26179898 0 1.34906602 0.600000024 1.43633199 0 1.52359903 0.600000024 1.610865 0 1.69813204 0.600000024 1.78539801 0.600000024 0.214601994 0 0.127335012 0 0.301868021 0.600000024 0.389135003 0 0.476400971 0.600000024 0.563668013 0 0.650933981 0.600000024 0.738201022 0 0.82546699 0.600000024 0.912734032 0 1 0.600000024 1.08726597 0 1.17453301 0.600000024 1.26179898 0 1.34906602 0.600000024 1.43633199 0 1.52359903 0.600000024 1.610865 0 1.69813204 0.600000024 1.78539801 0.600000024 0.214601994 0 0.127335012 0 0.301868021 0.600000024 0.389135003 0 0.476400971 0.600000024 0.563668013 0 0.650933981 0.600000024 0.738201022 0 0.82546699 0.600000024 0.912734032 0 1 0.600000024 1.08726597 0 1.17453301 0.600000024 1.26179898 0 1.34906602 0.600000024 1.43633199 0 1.52359903 0.600000024 1.610865 0 1.69813204 0.600000024 1.78539801 0.600000024 0.214601994 0 0.127335012 0 0.301868021 0.600000024 0.389135003 0 0.476400971 0.600000024 0.563668013 0 0.650933981 0.600000024 0.738201022 0 0.82546699 0.600000024 0.912734032 0 1 0.600000024 1.08726597 0 1.17453301 0.600000024 1.26179898 0 1.34906602 0.600000024 1.43633199 0 1.52359903 0.600000024 1.610865 0 1.69813204 0.600000024 1.78539801 0.600000024 0.214601994 0 0.127335012 0 0.301868021 0.600000024 0.389135003 0 0.476400971 0.600000024 0.563668013 0 0.650933981 0.600000024 0.738201022 0 0.82546699 0.600000024 0.912734032 0 1 0.600000024 1.08726597 0 1.17453301 0.600000024 1.26179898 0 1.34906602 0.600000024 1.43633199 0 1.52359903 0.600000024 1.610865 0 1.69813204 0.600000024 1.78539801 0.600000024 0.214601994 0 0.127335012 0 0.301868021 0.600000024 0.389135003 0 0.476400971 0.600000024 0.563668013 0 0.650933981 0.600000024 0.738201022 0 0.82546699 0.600000024 0.912734032 0 1 0.600000024 1.08726597 0 1.17453301 0.600000024 1.26179898 0 1.34906602 0.600000024 1.43633199 0 1.52359903 0.600000024 1.610865 0 1.69813204 0.600000024 1.78539801 0.600000024 0.214601994 0 0.127335012 0 0.301868021 0.600000024 0.389135003 0 0.476400971 0.600000024 0.563668013 0 0.650933981 0.600000024 0.738201022 0 0.82546699 0.600000024 0.912734032 0 1 0.600000024 1.08726597 0 1.17453301 0.600000024 1.26179898 0 1.34906602 0.600000024 1.43633199 0 1.52359903 0.600000024 1.610865 0 1.69813204 0.600000024 1.78539801 0.600000024 0.214601994 0 0.127335012 0 0.301868021 0.600000024 0.389135003 0 0.476400971 0.600000024 0.563668013 0 0.650933981 0.600000024 0.738201022 0 0.82546699 0.600000024 0.912734032 0 1 0.600000024 1.08726597 0 1.17453301 0.600000024 1.26179898 0 1.34906602 0.600000024 1.43633199 0 1.52359903 0.600000024 1.610865 0 1.69813204 0.600000024 1.78539801 0.600000024 0.214601994 0 0.127335012 0 0.301868021 0.600000024 0.389135003 0 0.476400971 0.600000024 0.563668013 0 0.650933981 0.600000024 0.738201022 0 0.82546699 0.600000024 0.912734032 0 1 0.600000024 1.08726597 0 1.17453301 0.600000024 1.26179898 0 1.34906602 0.600000024 1.43633199 0 1.52359903 0.600000024 1.610865 0 1.69813204 0.600000024 1.78539801 0.600000024 0.214601994 0 0.127335012 0 0.301868021 0.600000024 0.389135003 0 0.476400971 0.600000024 0.563668013 0 0.650933981 0.600000024 0.738201022 0 0.82546699 0.600000024 0.912734032 0 1 0.600000024 1.08726597 0 1.17453301 0.600000024 1.26179898 0 1.34906602 0.600000024 1.43633199 0 1.52359903 -0 0.399999976 -5.55999994 0.399999976 -0 1 -5.55999994 1 -0 0.399999976 -5.55999994 0.399999976 -0 1 -5.55999994 1 -0 0.399999976 -5.55999994 0.399999976 -0 1 -5.55999994 1 -0 0.399999976 -5.55999994 0.399999976 -0 1 -5.55999994 1 -0.600000024 1 -0 1 -0.600000024 0.861819983 -0 0.861819983 -0.600000024 0.723639965 -0 0.723639965 -0.600000024 0.58546102 -0 0.58546102 0 1 0.362928987 1 0 0.399999976 0.362928987 0.399999976 0.600000024 8.09528351 0 8.09528351 0.600000024 8.95477104 0 8.95477104 0 9.81425953 0.600000024 9.81425953 0 10.6737471 0.600000024 10.6737471 0 11.5332355 0.600000024 11.5332355 0 12.3927231 0.600000024 12.3927231 0.600000024 13.2522116 0 13.2522116 0 1 15.9653902 1 0 0.399999976 15.9653902 0.399999976 0.600000024 8.09528351 0 8.09528351 0.600000024 8.95477104 0 8.95477104 0 9.81425953 0.600000024 9.81425953 0 10.6737471 0.600000024 10.6737471 0 11.5332355 0.600000024 11.5332355 0 12.3927231 0.600000024 12.3927231 0.600000024 13.2522116 0 13.2522116 0 1 0.362928987 1 0 0.399999976 0.362928987 0.399999976 -0.600000024 1 -0 1 -0.600000024 0.861819983 -0 0.861819983 -0.600000024 0.723639965 -0 0.723639965 -0.600000024 0.58546102 -0 0.58546102 -0.600000024 1 -0 1 -0.600000024 -1.37947798 -0 -1.37947798 -0.600000024 -3.75895691 -0 -3.75895691 -0.600000024 -6.13843489 -0 -6.13843489 -0.600000024 -8.51791382 -0 -8.51791382 -0.600000024 -10.8973923 -0 -10.8973923 -0.600000024 -13.2768707 -0 -13.2768707 -0.600000024 -15.6563492 -0 -15.6563492 -0.600000024 -18.0358276 -0 -18.0358276 -0.600000024 -20.4153061 -0 -20.4153061 -0.600000024 -22.7947845 -0 -22.7947845 -0.600000024 -25.174263 -0 -25.174263 -0.600000024 1 -0 1 -0.600000024 0.861819983 -0 0.861819983 -0.600000024 0.723639965 -0 0.723639965 -0.600000024 0.58546102 -0 0.58546102 0 1 0.362928987 1 0 0.399999976 0.362928987 0.399999976 0.600000024 8.09528351 0 8.09528351 0.600000024 8.95477104 0 8.95477104 0 9.81425953 0.600000024 9.81425953 0 10.6737471 0.600000024 10.6737471 0 11.5332355 0.600000024 11.5332355 0 12.3927231 0.600000024 12.3927231 0.600000024 13.2522116 0 13.2522116 0 1 15.9653902 1 0 0.399999976 15.9653902 0.399999976 0.600000024 8.09528351 0 8.09528351 0.600000024 8.95477104 0 8.95477104 0 9.81425953 0.600000024 9.81425953 0 10.6737471 0.600000024 10.6737471 0 11.5332355 0.600000024 11.5332355 0 12.3927231 0.600000024 12.3927231 0.600000024 13.2522116 0 13.2522116 0 1 0.362928987 1 0 0.399999976 0.362928987 0.399999976 -0.600000024 1 -0 1 -0.600000024 0.861819983 -0 0.861819983 -0.600000024 0.723639965 -0 0.723639965 -0.600000024 0.58546102 -0 0.58546102 -0.600000024 1 -0 1 -0.600000024 -1.37947798 -0 -1.37947798 -0.600000024 -3.75895691 -0 -3.75895691 -0.600000024 -6.13843489 -0 -6.13843489 -0.600000024 -8.51791382 -0 -8.51791382 -0.600000024 -10.8973923 -0 -10.8973923 -0.600000024 -13.2768707 -0 -13.2768707 -0.600000024 -15.6563492 -0 -15.6563492 -0.600000024 -18.0358276 -0 -18.0358276 -0.600000024 -20.4153061 -0 -20.4153061 -0.600000024 -22.7947845 -0 -22.7947845 -0.600000024 -25.174263 -0 -25.174263 -0.600000024 1 -0 1 -0.600000024 0.861819983 -0 0.861819983 -0.600000024 0.723639965 -0 0.723639965 -0.600000024 0.58546102 -0 0.58546102 0 1 0.362928987 1 0 0.399999976 0.362928987 0.399999976 0.600000024 8.09528351 0 8.09528351 0.600000024 8.95477104 0 8.95477104 0 9.81425953 0.600000024 9.81425953 0 10.6737471 0.600000024 10.6737471 0 11.5332355 0.600000024 11.5332355 0 12.3927231 0.600000024 12.3927231 0.600000024 13.2522116 0 13.2522116 0 1 15.9653902 1 0 0.399999976 15.9653902 0.399999976 0.600000024 8.09528351 0 8.09528351 0.600000024 8.95477104 0 8.95477104 0 9.81425953 0.600000024 9.81425953 0 10.6737471 0.600000024 10.6737471 0 11.5332355 0.600000024 11.5332355 0 12.3927231 0.600000024 12.3927231 0.600000024 13.2522116 0 13.2522116 0 1 0.362928987 1 0 0.399999976 0.362928987 0.399999976 -0.600000024 1 -0 1 -0.600000024 0.861819983 -0 0.861819983 -0.600000024 0.723639965 -0 0.723639965 -0.600000024 0.58546102 -0 0.58546102 -0.600000024 1 -0 1 -0.600000024 -1.37947798 -0 -1.37947798 -0.600000024 -3.75895691 -0 -3.75895691 -0.600000024 -6.13843489 -0 -6.13843489 -0.600000024 -8.51791382 -0 -8.51791382 -0.600000024 -10.8973923 -0 -10.8973923 -0.600000024 -13.2768707 -0 -13.2768707 -0.600000024 -15.6563492 -0 -15.6563492 -0.600000024 -18.0358276 -0 -18.0358276 -0.600000024 -20.4153061 -0 -20.4153061 -0.600000024 -22.7947845 -0 -22.7947845 -0.600000024 -25.174263 -0 -25.174263 16.7049694 9.23040962 21.7989101 6.88797188 16.5442734 9.17192078 22.267458 4.55607605 22.5028877 2.1892519 18.7463341 10.0616112 16.7904758 9.37850857 18.585638 10.1201 16.7607803 9.54692078 18.5001335 10.268199 16.6297779 9.65684414 18.529829 10.4366112 17.2636833 11.9839058 18.6608295 10.5465345 17.9582806 12.4871635 18.8318405 10.5465345 20.1831093 11.3559418 18.962841 10.4366112 18.9925365 10.268199 21.1018448 9.16203976 18.907032 10.1201 16.475872 11.64466 16.4587688 9.65684414 15.6329536 11.4858351 16.3277664 9.54692078 14.7757044 11.5151157 16.2980709 9.37850857 13.9455881 11.7310839 16.3835754 9.23040962 1.31237102 3.77999997 16.5494137 -6.98923779 1.31237102 -1.77999997 16.4184132 -7.09916115 13.9455881 -9.73108387 16.3887177 -7.26757336 14.7757044 -9.51511574 15.6329536 -9.48583508 16.4742222 -7.4156723 16.6349182 -7.47416115 22.5028877 -0.189252019 -3.67121506 -21.3531227 -3.51051807 -21.4116116 -3.32448912 -22.9280605 -3.34982109 -21.3531227 -1.23240602 -21.5669117 -3.26431608 -21.2050228 -1.32094204 -20.7137451 -3.29401207 -21.0366116 -1.22083294 -19.8618565 -3.01928496 -19.001236 -2.93377995 -18.8531361 -3.42501307 -20.9266891 -3.17998195 -19.0597248 -3.59602308 -20.9266891 -3.34067893 -19.001236 -3.72702408 -21.0366116 -3.42618394 -18.8531361 -8.00176334 -22.093399 -3.39648795 -18.6847248 -10.2555199 -21.3332253 -12.4229641 -20.3537025 -5.68383121 -22.6267567 -3.75672007 -21.2050228 -3.34982109 22.9701004 -3.32139802 21.023365 -3.51051807 22.9116116 -3.49240804 21.023365 -3.67121506 22.9701004 -3.62340999 20.9134426 -3.75672007 23.1182003 -5.68383121 24.6267567 -3.72702408 23.2866116 -3.32448912 24.9280605 -3.59602308 23.396534 -3.42501307 23.396534 -3.29401207 23.2866116 -1.23240602 23.5669117 -3.26431608 23.1182003 -1.32094204 22.7137451 -1.22083294 21.8618565 -3.19039702 20.9134426 -0.936919987 21.0524559 -3.16070104 20.7450294 -0.482937008 20.3246956 -3.24620605 20.5969315 0.119154997 19.7137794 -3.40690303 20.5384426 -4.24762917 3.77999997 -3.56760001 20.5969315 -17.3890839 12.5302706 -12.4229641 22.3537025 -17.4187794 12.6986828 -14.4828091 21.1644497 -16.4148235 19.7771492 -18.2000313 18.2054272 -17.5497799 12.8086052 -19.4221954 13.9750004 -17.720789 12.8086052 -19.3924999 13.8065882 -17.8517914 12.6986828 -19.4780045 13.6584892 -17.8814869 12.5302706 -19.6579247 11.2171965 -17.7959824 12.3821716 -19.0989189 10.5666208 -17.6352844 12.3236828 -18.695652 9.8095808 -17.4745884 12.3821716 -18.4676285 8.98269463 -17.6064796 -10.5793152 -18.2000313 -16.2054272 -17.7671776 -10.637804 -19.3924999 -11.8934116 -17.9278736 -10.5793152 -19.4221954 -11.7250004 -18.0133781 -10.4312162 -19.5531979 -11.615077 -19.6579247 -9.21719646 -20.3456249 -9.72983837 -19.7242069 -11.615077 -21.1287594 -10.0797472 -19.8552094 -11.7250004 -21.261507 -12.5721178 -19.8849049 -11.8934116 -19.7993984 -12.0415115 -16.4148235 -17.7771492 -17.5209751 -10.4312162 -14.4828091 -19.1644497 -17.5506706 -10.262804 -4.24762917 -1.77999997 -3.26548696 -18.5748024 -18.4676285 -6.9826951 -17.6816711 -10.1528807 -18.695652 -7.8095808 -17.8526821 -10.1528807 -19.0989189 -8.56662083 -17.9836826 -10.262804 -8.00176334 24.093399 -3.65310502 20.7450294 -10.2555199 23.3332253 16.475872 -9.64466 16.7956161 -7.4156723 18.5001335 -8.35502338 18.529829 -8.18661118 16.8811207 -7.26757336 18.6608295 -8.07668877 16.8514252 -7.09916115 18.8318405 -8.07668877 21.7989101 -4.88797188 21.1018448 -7.16203976 16.7204247 -6.98923779 22.267458 -2.55607605 -19.6387024 -12.1000004 -19.8208981 -14.4647169 -19.4780045 -12.0415115 18.907032 -8.50312233 20.1831093 -9.35594177 18.7463341 -8.56161118 17.9582806 -10.4871635 18.585638 -8.50312233 17.2636833 -9.98390579 18.9925365 -8.35502338 18.962841 -8.18661118 -19.6387024 13.6000004 -20.3456249 11.7298384 -19.7993984 13.6584892 -21.1287594 12.0797472 -19.8849049 13.8065882 -21.261507 14.5721178 -19.8552094 13.9750004 -19.7242069 14.0849228 -19.8208981 16.4647179 -19.5531979 14.0849228 -0.936919987 -19.0524559 -2.96347594 -18.6847248 -0.482937008 -18.3246956 -3.09447694 -18.5748024 0.119154997 -17.7137794 -0.959506989 -22.3800926 -0.94690901 -22.9943504 -0.778042972 -22.694397 -0.820487976 -22.9457302 -0.754040003 -22.8277016 -21.9694424 -10.25 -22.5077057 -10.5462189 -22.3323708 -10.25 -22.4598179 -10.2958651 -22.5288105 -10.412425 -21.9694424 12.25 -22.5077057 12.5462189 -22.3323708 12.25 -22.4598179 12.2958651 -22.5288105 12.412425 -0.959506989 24.3800926 -0.94690901 24.9943504 -0.778042972 24.694397 -0.820487976 24.9457302 -0.754040003 24.8277016 18.5260639 13.1300917 19.0517292 13.4481316 18.7075291 13.4443979 18.946413 13.5333061 18.8109722 13.5318375 18.5260639 -11.1300917 19.0517292 -11.4481316 18.7075291 -11.4443979 18.946413 -11.5333061 18.8109722 -11.5318375 -16.7049694 9.61343193 -16.475872 11.64466 -16.5442734 9.67192078 -15.6329536 11.4858351 -16.3835754 9.61343193 -16.2980709 9.46533298 -14.7757044 11.5151157 -13.9455881 11.7310839 -16.7904758 9.46533298 -18.529829 10.1866112 -18.5001335 10.3550234 -17.2636833 11.9839058 -18.585638 10.5031223 -17.9582806 12.4871635 -18.7463341 10.5616112 -20.1831093 11.3559418 -18.907032 10.5031223 -18.9925365 10.3550234 -18.6608295 10.0766888 -16.7607803 9.29692078 -21.7989101 6.88797188 -16.6297779 9.18699741 -22.267458 4.55607605 -16.4587688 9.18699741 -22.5028877 2.1892519 -16.6349182 -6.97416115 -22.5028877 -0.189252019 -22.267458 -2.55607605 -16.7956161 -7.03264999 -21.7989101 -4.88797188 -18.7463341 -8.06161118 -21.1018448 -7.16203976 -18.907032 -8.12010002 -18.9925365 -8.26819897 -16.3277664 9.29692078 -1.31237102 3.77999997 -16.4742222 -7.03264999 3.34982109 -20.9701004 3.09447694 -19.0446472 3.51051807 -20.9116116 3.26548696 -19.0446472 3.67121506 -20.9701004 3.39648795 -18.9347248 3.75672007 -21.1182003 8.00176334 -22.093399 5.68383121 -22.6267567 3.26431608 -21.1182003 1.32094204 -20.7137451 1.22083294 -19.8618565 2.96347594 -18.9347248 0.936919987 -19.0524559 2.93377995 -18.7663136 3.01928496 -18.6182137 0.482937008 -18.3246956 -0.119154997 -17.7137794 1.23240602 -21.5669117 3.29401207 -21.2866116 3.32448912 -22.9280605 3.42501307 -21.396534 3.59602308 -21.396534 3.72702408 -21.2866116 -21.1018448 9.16203976 -18.962841 10.1866112 -18.8318405 10.0766888 3.67121506 23.3531227 3.51051807 23.4116116 3.32448912 24.9280605 3.34982109 23.3531227 1.23240602 23.5669117 3.26431608 23.2050228 1.32094204 22.7137451 3.29401207 23.0366116 1.22083294 21.8618565 3.24620605 20.9799538 3.16070104 20.8318539 3.42501307 22.9266891 3.40690303 21.0384426 3.59602308 22.9266891 3.56760001 20.9799538 3.72702408 23.0366116 3.65310502 20.8318539 5.68383121 24.6267567 8.00176334 24.093399 3.75672007 23.2050228 17.6064796 -10.1962929 18.695652 -7.8095808 17.7671776 -10.137804 19.0989189 -8.56662083 17.9278736 -10.1962929 19.6579247 -9.21719646 18.0133781 -10.3443918 19.6387024 -11.6000004 19.4780045 -11.6584892 18.4676285 -6.9826951 17.5209751 -10.3443918 4.24762917 -1.77999997 12.4229641 -20.3537025 3.34067893 -18.6182137 10.2555199 -21.3332253 3.42618394 -18.7663136 17.5506706 -10.512804 14.4828091 -19.1644497 16.4148235 -17.7771492 18.2000313 -16.2054272 17.6816711 -10.6227274 19.4221954 -11.9750004 17.8526821 -10.6227274 19.3924999 -11.8065882 17.9836826 -10.512804 0.936919987 21.0524559 3.19039702 20.6634426 0.482937008 20.3246956 3.32139802 20.5535183 -0.119154997 19.7137794 4.24762917 3.77999997 3.49240804 20.5535183 17.3890839 12.617094 17.4187794 12.4486828 3.62340999 20.6634426 12.4229641 22.3537025 14.4828091 21.1644497 10.2555199 23.3332253 -16.8811207 -7.18074894 -18.585638 -8.12010002 -16.8514252 -7.34916115 -18.5001335 -8.26819897 -16.7204247 -7.45908546 -18.529829 -8.43661118 -16.475872 -9.64466 -17.2636833 -9.98390579 -16.5494137 -7.45908546 -15.6329536 -9.48583508 -16.4184132 -7.34916115 -14.7757044 -9.51511574 -16.3887177 -7.18074894 -13.9455881 -9.73108387 -1.31237102 -1.77999997 19.8208981 -14.4647169 19.5531979 -12.0849228 19.7242069 -12.0849228 21.261507 -12.5721178 19.8552094 -11.9750004 19.8849049 -11.8065882 21.1287594 -10.0797472 19.7993984 -11.6584892 20.3456249 -9.72983837 -20.1831093 -9.35594177 -18.962841 -8.43661118 -18.8318405 -8.54653454 -17.9582806 -10.4871635 -18.6608295 -8.54653454 19.7993984 14.0415115 19.6387024 14.1000004 19.8208981 16.4647179 19.4780045 14.0415115 18.2000313 18.2054272 17.6352844 12.8236828 17.4745884 12.7651939 19.3924999 13.8934116 17.7959824 12.7651939 19.4221954 13.7250004 17.8814869 12.617094 19.5531979 13.615077 19.6579247 11.2171965 20.3456249 11.7298384 19.7242069 13.615077 21.1287594 12.0797472 19.8552094 13.7250004 21.261507 14.5721178 19.8849049 13.8934116 3.17998195 -18.5597248 16.4148235 19.7771492 18.4676285 8.98269463 17.5497799 12.3387594 18.695652 9.8095808 17.720789 12.3387594 19.0989189 10.5666208 17.8517914 12.4486828 21.9694424 -10.25 22.5077057 -10.5462189 22.3323708 -10.25 22.4598179 -10.2958651 0.959506989 -22.3800926 0.94690901 -22.9943504 0.778042972 -22.694397 0.820487976 -22.9457302 0.754040003 -22.8277016 -18.5260639 -11.1300917 -19.0517292 -11.4481316 -18.7075291 -11.4443979 -18.946413 -11.5333061 -18.8109722 -11.5318375 -18.5260639 13.1300917 -19.0517292 13.4481316 -18.7075291 13.4443979 -18.946413 13.5333061 -18.8109722 13.5318375 0.959506989 24.3800926 0.94690901 24.9943504 0.778042972 24.694397 0.820487976 24.9457302 0.754040003 24.8277016 21.9694424 12.25 22.5077057 12.5462189 22.3323708 12.25 22.4598179 12.2958651 22.5288105 12.412425 22.5288105 -10.412425 </float_array>
          <technique_common>
            <accessor count="912" offset="0" source="#meshesQ0S-tex0-array" stride="2">
              <param name="S" type="float" />
              <param name="T" type="float" />
            </accessor>
          </technique_common>
        </source>
        <vertices id="meshesQ0S-vertices">
          <input semantic="POSITION" source="#meshesQ0S-positions" />
        </vertices>
        <polylist count="880" material="defaultMaterial">
          <input offset="0" semantic="VERTEX" source="#meshesQ0S-vertices" />
          <input offset="0" semantic="NORMAL" source="#meshesQ0S-normals" />
          <input offset="0" semantic="TEXCOORD" source="#meshesQ0S-tex0" set="0" />
          <vcount>3 3 3 3 3 3 3 3 3 3 3 3 3 3 3 3 3 3 3 3 3 3 3 3 3 3 3 3 3 3 3 3 3 3 3 3 3 3 3 3 3 3 3 3 3 3 3 3 3 3 3 3 3 3 3 3 3 3 3 3 3 3 3 3 3 3 3 3 3 3 3 3 3 3 3 3 3 3 3 3 3 3 3 3 3 3 3 3 3 3 3 3 3 3 3 3 3 3 3 3 3 3 3 3 3 3 3 3 3 3 3 3 3 3 3 3 3 3 3 3 3 3 3 3 3 3 3 3 3 3 3 3 3 3 3 3 3 3 3 3 3 3 3 3 3 3 3 3 3 3 3 3 3 3 3 3 3 3 3 3 3 3 3 3 3 3 3 3 3 3 3 3 3 3 3 3 3 3 3 3 3 3 3 3 3 3 3 3 3 3 3 3 3 3 3 3 3 3 3 3 3 3 3 3 3 3 3 3 3 3 3 3 3 3 3 3 3 3 3 3 3 3 3 3 3 3 3 3 3 3 3 3 3 3 3 3 3 3 3 3 3 3 3 3 3 3 3 3 3 3 3 3 3 3 3 3 3 3 3 3 3 3 3 3 3 3 3 3 3 3 3 3 3 3 3 3 3 3 3 3 3 3 3 3 3 3 3 3 3 3 3 3 3 3 3 3 3 3 3 3 3 3 3 3 3 3 3 3 3 3 3 3 3 3 3 3 3 3 3 3 3 3 3 3 3 3 3 3 3 3 3 3 3 3 3 3 3 3 3 3 3 3 3 3 3 3 3 3 3 3 3 3 3 3 3 3 3 3 3 3 3 3 3 3 3 3 3 3 3 3 3 3 3 3 3 3 3 3 3 3 3 3 3 3 3 3 3 3 3 3 3 3 3 3 3 3 3 3 3 3 3 3 3 3 3 3 3 3 3 3 3 3 3 3 3 3 3 3 3 3 3 3 3 3 3 3 3 3 3 3 3 3 3 3 3 3 3 3 3 3 3 3 3 3 3 3 3 3 3 3 3 3 3 3 3 3 3 3 3 3 3 3 3 3 3 3 3 3 3 3 3 3 3 3 3 3 3 3 3 3 3 3 3 3 3 3 3 3 3 3 3 3 3 3 3 3 3 3 3 3 3 3 3 3 3 3 3 3 3 3 3 3 3 3 3 3 3 3 3 3 3 3 3 3 3 3 3 3 3 3 3 3 3 3 3 3 3 3 3 3 3 3 3 3 3 3 3 3 3 3 3 3 3 3 3 3 3 3 3 3 3 3 3 3 3 3 3 3 3 3 3 3 3 3 3 3 3 3 3 3 3 3 3 3 3 3 3 3 3 3 3 3 3 3 3 3 3 3 3 3 3 3 3 3 3 3 3 3 3 3 3 3 3 3 3 3 3 3 3 3 3 3 3 3 3 3 3 3 3 3 3 3 3 3 3 3 3 3 3 3 3 3 3 3 3 3 3 3 3 3 3 3 3 3 3 3 3 3 3 3 3 3 3 3 3 3 3 3 3 3 3 3 3 3 3 3 3 3 3 3 3 3 3 3 3 3 3 3 3 3 3 3 3 3 3 3 3 3 3 3 3 3 3 3 3 3 3 3 3 3 3 3 3 3 3 3 3 3 3 3 3 3 3 3 3 3 3 3 3 3 3 3 3 3 3 3 3 3 3 3 3 3 3 3 3 3 3 3 3 3 3 3 3 3 3 3 3 3 3 3 3 3 3 3 3 3 3 3 3 3 3 3 3 3 3 3 3 3 3 3 3 3 3 3 3 3 3 3 3 3 3 3 3 3 3 3 3 3 3 3 3 3 3 3 3 3 3 3 3 3 3 3 3 3 3 3 3 3 3 3 3 3 3 3 3 3 3 3 3 3 3 3 3 3 3 3 3 3 3 3 3 3 3 3 3 3 3 3 3 3 3 3 3 3 3 3 3 3 3 3 3 3 3 3 3 3 3 3 3 3 3 3 3 3 3 3 3 3 3 3 </vcount>
          <p>0 1 2 3 4 5 3 5 6 6 5 7 6 7 8 8 7 9 8 9 10 10 9 11 10 11 12 12 11 13 12 13 14 14 13 15 14 15 16 16 15 17 16 17 18 18 17 19 18 19 0 0 19 1 20 21 22 23 24 25 23 25 26 26 25 27 26 27 28 28 27 29 28 29 30 30 29 31 30 31 32 32 31 33 32 33 34 34 33 35 34 35 36 36 35 37 36 37 38 38 37 39 38 39 20 20 39 21 40 41 42 43 44 45 43 45 46 46 45 47 46 47 48 48 47 49 48 49 50 50 49 51 50 51 52 52 51 53 52 53 54 54 53 55 54 55 56 56 55 57 56 57 58 58 57 59 58 59 40 40 59 41 60 61 62 63 64 65 63 65 66 66 65 67 66 67 68 68 67 69 68 69 70 70 69 71 70 71 72 72 71 73 72 73 74 74 73 75 74 75 76 76 75 77 76 77 78 78 77 79 78 79 60 60 79 61 80 81 82 83 84 85 83 85 86 86 85 87 86 87 88 88 87 89 88 89 90 90 89 91 90 91 92 92 91 93 92 93 94 94 93 95 94 95 96 96 95 97 96 97 98 98 97 99 98 99 80 80 99 81 100 101 102 103 104 105 103 105 106 106 105 107 106 107 108 108 107 109 108 109 110 110 109 111 110 111 112 112 111 113 112 113 114 114 113 115 114 115 116 116 115 117 116 117 118 118 117 119 118 119 100 100 119 101 120 121 122 123 124 125 123 125 126 126 125 127 126 127 128 128 127 129 128 129 130 130 129 131 130 131 132 132 131 133 132 133 134 134 133 135 134 135 136 136 135 137 136 137 138 138 137 139 138 139 120 120 139 121 140 141 142 143 144 145 143 145 146 146 145 147 146 147 148 148 147 149 148 149 150 150 149 151 150 151 152 152 151 153 152 153 154 154 153 155 154 155 156 156 155 157 156 157 158 158 157 159 158 159 140 140 159 141 160 161 162 163 164 165 163 165 166 166 165 167 166 167 168 168 167 169 168 169 170 170 169 171 170 171 172 172 171 173 172 173 174 174 173 175 174 175 176 176 175 177 176 177 178 178 177 179 178 179 160 160 179 161 180 181 182 183 184 185 183 185 186 186 185 187 186 187 188 188 187 189 188 189 190 190 189 191 190 191 192 192 191 193 192 193 194 194 193 195 194 195 196 196 195 197 196 197 198 198 197 199 198 199 180 180 199 181 200 201 202 203 204 205 203 205 206 206 205 207 206 207 208 208 207 209 208 209 210 210 209 211 210 211 212 212 211 213 212 213 214 214 213 215 214 215 216 216 215 217 216 217 218 218 217 219 218 219 200 200 219 201 220 221 222 223 224 225 223 225 226 226 225 227 226 227 228 228 227 229 228 229 230 230 229 231 230 231 232 232 231 233 232 233 234 234 233 235 234 235 236 236 235 237 236 237 238 238 237 239 238 239 220 220 239 221 240 241 242 242 241 243 244 245 246 246 245 247 248 249 250 250 249 251 252 253 254 254 253 255 256 257 258 258 257 259 258 259 260 260 259 261 260 261 262 262 261 263 264 265 266 266 265 267 268 269 270 270 269 271 270 271 272 270 272 273 273 272 274 273 274 275 275 274 276 275 276 277 277 276 278 277 278 279 279 278 280 280 278 281 282 283 284 284 283 285 286 287 288 288 287 289 288 289 290 288 290 291 291 290 292 291 292 293 293 292 294 293 294 295 295 294 296 295 296 297 297 296 298 298 296 299 300 301 302 302 301 303 304 305 306 306 305 307 306 307 308 308 307 309 308 309 310 310 309 311 312 313 314 314 313 315 314 315 316 316 315 317 316 317 318 318 317 319 318 319 320 320 319 321 320 321 322 322 321 323 322 323 324 324 323 325 324 325 326 326 325 327 326 327 328 328 327 329 328 329 330 330 329 331 330 331 332 332 331 333 332 333 334 334 333 335 336 337 338 338 337 339 338 339 340 340 339 341 340 341 342 342 341 343 344 345 346 346 345 347 348 349 350 350 349 351 350 351 352 350 352 353 353 352 354 353 354 355 355 354 356 355 356 357 357 356 358 357 358 359 359 358 360 360 358 361 362 363 364 364 363 365 366 367 368 368 367 369 368 369 370 368 370 371 371 370 372 371 372 373 373 372 374 373 374 375 375 374 376 375 376 377 377 376 378 378 376 379 380 381 382 382 381 383 384 385 386 386 385 387 386 387 388 388 387 389 388 389 390 390 389 391 392 393 394 394 393 395 394 395 396 396 395 397 396 397 398 398 397 399 398 399 400 400 399 401 400 401 402 402 401 403 402 403 404 404 403 405 404 405 406 406 405 407 406 407 408 408 407 409 408 409 410 410 409 411 410 411 412 412 411 413 412 413 414 414 413 415 416 417 418 418 417 419 418 419 420 420 419 421 420 421 422 422 421 423 424 425 426 426 425 427 428 429 430 430 429 431 430 431 432 430 432 433 433 432 434 433 434 435 435 434 436 435 436 437 437 436 438 437 438 439 439 438 440 440 438 441 442 443 444 444 443 445 446 447 448 448 447 449 448 449 450 448 450 451 451 450 452 451 452 453 453 452 454 453 454 455 455 454 456 455 456 457 457 456 458 458 456 459 460 461 462 462 461 463 464 465 466 466 465 467 466 467 468 468 467 469 468 469 470 470 469 471 472 473 474 474 473 475 474 475 476 476 475 477 476 477 478 478 477 479 478 479 480 480 479 481 480 481 482 482 481 483 482 483 484 484 483 485 484 485 486 486 485 487 486 487 488 488 487 489 488 489 490 490 489 491 490 491 492 492 491 493 492 493 494 494 493 495 496 497 498 498 497 499 498 499 500 497 496 501 501 496 502 501 502 503 503 502 504 503 504 505 505 504 506 505 506 507 507 506 508 507 508 509 509 508 510 509 510 511 511 510 512 511 512 513 513 512 514 514 512 515 514 515 516 516 515 501 501 515 497 508 506 517 517 506 518 517 518 519 519 518 520 519 520 521 521 520 522 521 522 523 523 522 524 523 524 525 525 524 526 525 526 527 527 526 528 527 528 529 529 528 530 529 530 531 531 530 532 532 530 533 532 533 534 524 498 526 526 498 500 526 500 535 536 537 538 538 537 539 538 539 540 540 539 541 540 541 542 542 541 543 542 543 544 544 543 545 544 545 546 543 547 545 545 547 548 548 547 549 548 549 550 550 549 551 550 551 552 552 551 553 552 553 554 554 553 555 554 555 556 553 551 557 557 551 558 557 558 536 557 536 538 559 560 561 561 560 562 561 562 563 563 562 564 563 564 565 565 564 566 565 566 567 567 566 568 567 568 569 569 568 570 570 568 571 571 568 572 571 572 573 573 572 574 573 574 559 559 574 575 559 575 576 576 575 577 576 577 578 578 577 579 578 579 580 580 579 581 580 581 582 582 581 583 582 583 584 584 583 585 584 585 586 586 585 587 586 587 588 588 587 589 589 587 590 590 587 591 590 591 592 592 591 593 592 593 594 594 593 595 594 595 596 596 595 597 596 597 598 598 597 599 598 599 600 600 599 601 600 601 602 602 601 603 602 603 604 604 603 585 604 585 583 605 606 607 607 606 608 607 608 609 609 608 610 609 610 611 611 610 612 611 612 613 613 612 614 614 612 615 614 615 616 616 615 617 616 617 618 618 617 619 618 619 620 606 605 621 621 605 622 621 622 623 623 622 556 556 622 554 624 625 622 622 625 626 622 626 554 625 624 627 627 624 628 627 628 629 629 628 630 629 630 631 631 630 632 631 632 613 613 632 611 576 560 559 566 564 633 633 564 634 633 634 635 635 634 584 635 584 586 532 534 636 636 534 637 636 637 638 638 637 639 639 637 640 639 640 641 641 640 642 641 642 643 643 642 644 643 644 645 642 646 644 644 646 647 647 646 535 535 646 526 620 648 649 649 648 650 649 650 606 606 650 608 618 620 649 651 652 653 653 652 654 653 654 655 655 654 656 655 656 638 638 656 636 651 657 652 652 657 645 645 657 658 645 658 643 596 598 659 659 598 660 659 660 661 661 660 662 661 662 663 663 662 664 663 664 665 665 664 666 666 664 667 666 667 668 668 667 592 592 667 590 544 546 669 669 546 670 669 670 671 671 670 672 671 672 673 673 672 626 673 626 625 583 625 604 604 625 627 625 527 673 673 527 529 523 525 581 581 525 583 538 674 675 675 674 676 675 676 677 677 676 678 616 618 679 679 618 680 679 680 681 681 680 682 682 680 683 662 684 664 664 684 685 685 684 686 685 686 687 687 688 685 572 568 689 689 568 690 689 690 691 691 690 692 691 692 693 510 694 512 512 694 695 695 694 696 695 696 697 697 696 698 654 652 699 699 652 700 699 700 701 701 700 702 701 702 703 540 674 538 704 705 706 706 705 707 706 707 708 708 707 709 709 707 710 709 710 711 712 713 704 704 713 714 704 714 715 715 714 716 715 716 717 717 716 718 717 718 719 719 718 720 719 720 721 713 712 722 722 712 723 722 723 724 724 723 725 724 725 726 726 725 727 726 727 728 728 727 729 728 729 730 730 729 731 731 729 732 731 732 733 733 732 734 733 734 735 735 734 736 735 736 737 738 739 727 727 739 740 727 740 729 739 738 711 711 738 709 741 742 743 743 742 744 743 744 745 745 744 746 745 746 747 747 746 748 747 748 749 750 751 741 741 751 752 741 752 742 742 752 753 753 752 754 753 754 755 755 754 756 756 754 757 756 757 758 751 750 759 759 750 760 759 760 761 761 760 762 761 762 763 763 764 761 761 764 749 749 764 747 719 721 765 765 721 766 765 766 767 765 767 724 724 767 722 768 769 770 770 769 771 770 771 772 772 771 773 772 773 774 774 773 775 774 775 776 776 775 777 776 777 778 775 779 777 777 779 780 780 779 781 780 781 782 782 781 783 782 783 784 784 783 785 784 785 786 783 787 785 785 787 768 785 768 770 788 789 790 790 789 791 790 791 792 792 791 793 792 793 794 794 793 795 794 795 796 789 788 797 797 788 798 797 798 799 799 798 800 799 800 801 801 800 802 801 802 803 803 802 748 803 748 746 798 804 800 800 804 805 805 804 806 806 804 807 807 804 808 807 808 809 809 808 810 809 810 811 811 810 812 811 812 796 796 812 794 776 778 813 813 778 814 813 814 815 815 814 816 815 816 817 817 816 818 817 818 739 816 819 818 818 819 820 818 820 821 819 822 820 820 822 823 820 823 824 784 786 822 822 786 825 822 825 823 732 826 734 734 826 827 827 826 828 827 828 829 829 828 830 829 830 831 831 830 832 831 832 833 830 834 832 832 834 835 835 834 836 835 836 837 837 836 838 837 838 839 839 838 740 839 740 840 840 740 739 807 809 841 841 809 842 841 842 843 841 843 844 844 843 845 844 845 846 844 846 847 847 846 848 847 848 849 849 848 795 849 795 793 735 737 850 850 737 851 850 851 852 850 852 853 853 852 854 853 854 833 833 854 831 855 856 857 857 856 858 857 858 859 859 858 860 859 860 861 858 862 860 860 862 863 863 862 864 863 864 865 865 864 866 865 866 867 867 866 868 868 866 869 868 869 870 870 869 871 870 871 872 872 871 873 872 873 855 872 855 857 756 758 874 874 758 799 874 799 801 859 861 875 875 861 820 875 820 824 818 821 876 876 821 877 876 877 878 878 877 879 878 879 880 880 879 881 880 881 867 867 881 865 797 799 876 876 799 818 839 840 758 758 840 799 844 882 883 883 882 884 883 884 885 759 761 886 886 761 887 886 887 888 888 887 889 888 889 890 853 891 850 850 891 892 892 891 893 892 893 894 894 893 895 717 719 896 896 719 897 896 897 898 898 897 899 898 899 900 715 705 704 711 817 739 772 901 770 770 901 902 902 901 903 902 903 904 904 903 905 870 872 906 906 872 907 906 907 908 908 907 909 909 907 910 847 882 844 885 911 883 </p>
        </polylist>
      </mesh>
    </geometry>
  </library_geometries>
  <library_controllers>
  </library_controllers>
  <library_visual_scenes>
    <visual_scene id="empty_2" name="empty_2">
      <node id="gWSolid6" name="g Solid6" type="NODE">
        <matrix sid="matrix">1 0 0 0 0 1 0 0 0 0 1 0 0 0 0 1</matrix>
        <instance_geometry url="#meshesQ0S">
          <bind_material>
            <technique_common>
              <instance_material symbol="defaultMaterial" target="#_0i0i0">
                <bind_vertex_input semantic="CHANNEL0" input_semantic="TEXCOORD" input_set="0"/>
              </instance_material>
            </technique_common>
          </bind_material>
        </instance_geometry>
      </node>
    </visual_scene>
  </library_visual_scenes>
  <scene>
    <instance_visual_scene url="#empty_2" />
  </scene>
</COLLADA>
